<?xml version="1.0" encoding="utf-8" standalone="no"?>
<!DOCTYPE svg PUBLIC "-//W3C//DTD SVG 1.1//EN"
  "http://www.w3.org/Graphics/SVG/1.1/DTD/svg11.dtd">
<svg xmlns:xlink="http://www.w3.org/1999/xlink" width="711.63125pt" height="422.983437pt" viewBox="0 0 711.63125 422.983437" xmlns="http://www.w3.org/2000/svg" version="1.1">
 <metadata>
  <rdf:RDF xmlns:dc="http://purl.org/dc/elements/1.1/" xmlns:cc="http://creativecommons.org/ns#" xmlns:rdf="http://www.w3.org/1999/02/22-rdf-syntax-ns#">
   <cc:Work>
    <dc:type rdf:resource="http://purl.org/dc/dcmitype/StillImage"/>
    <dc:date>2025-03-26T00:27:58.732549</dc:date>
    <dc:format>image/svg+xml</dc:format>
    <dc:creator>
     <cc:Agent>
      <dc:title>Matplotlib v3.9.2, https://matplotlib.org/</dc:title>
     </cc:Agent>
    </dc:creator>
   </cc:Work>
  </rdf:RDF>
 </metadata>
 <defs>
  <style type="text/css">*{stroke-linejoin: round; stroke-linecap: butt}</style>
 </defs>
 <g id="figure_1">
  <g id="patch_1">
   <path d="M 0 422.983437 
L 711.63125 422.983437 
L 711.63125 0 
L 0 0 
z
" style="fill: #ffffff"/>
  </g>
  <g id="axes_1">
   <g id="patch_2">
    <path d="M 42.6325 383.397812 
L 694.8875 383.397812 
L 694.8875 32.837812 
L 42.6325 32.837812 
z
" style="fill: #ffffff"/>
   </g>
   <g id="matplotlib.axis_1">
    <g id="xtick_1">
     <g id="line2d_1">
      <path d="M 42.6325 383.397812 
L 42.6325 32.837812 
" clip-path="url(#p6325e23365)" style="fill: none; stroke: #b0b0b0; stroke-opacity: 0.5; stroke-width: 0.8; stroke-linecap: square"/>
     </g>
     <g id="line2d_2">
      <defs>
       <path id="m577b61c0c6" d="M 0 0 
L 0 3.5 
" style="stroke: #000000; stroke-width: 0.8"/>
      </defs>
      <g>
       <use xlink:href="#m577b61c0c6" x="42.6325" y="383.397812" style="stroke: #000000; stroke-width: 0.8"/>
      </g>
     </g>
     <g id="text_1">
      <!-- 0 -->
      <g transform="translate(39.45125 397.99625) scale(0.1 -0.1)">
       <defs>
        <path id="DejaVuSans-30" d="M 2034 4250 
Q 1547 4250 1301 3770 
Q 1056 3291 1056 2328 
Q 1056 1369 1301 889 
Q 1547 409 2034 409 
Q 2525 409 2770 889 
Q 3016 1369 3016 2328 
Q 3016 3291 2770 3770 
Q 2525 4250 2034 4250 
z
M 2034 4750 
Q 2819 4750 3233 4129 
Q 3647 3509 3647 2328 
Q 3647 1150 3233 529 
Q 2819 -91 2034 -91 
Q 1250 -91 836 529 
Q 422 1150 422 2328 
Q 422 3509 836 4129 
Q 1250 4750 2034 4750 
z
" transform="scale(0.015625)"/>
       </defs>
       <use xlink:href="#DejaVuSans-30"/>
      </g>
     </g>
    </g>
    <g id="xtick_2">
     <g id="line2d_3">
      <path d="M 151.341667 383.397812 
L 151.341667 32.837812 
" clip-path="url(#p6325e23365)" style="fill: none; stroke: #b0b0b0; stroke-opacity: 0.5; stroke-width: 0.8; stroke-linecap: square"/>
     </g>
     <g id="line2d_4">
      <g>
       <use xlink:href="#m577b61c0c6" x="151.341667" y="383.397812" style="stroke: #000000; stroke-width: 0.8"/>
      </g>
     </g>
     <g id="text_2">
      <!-- 100 -->
      <g transform="translate(141.797917 397.99625) scale(0.1 -0.1)">
       <defs>
        <path id="DejaVuSans-31" d="M 794 531 
L 1825 531 
L 1825 4091 
L 703 3866 
L 703 4441 
L 1819 4666 
L 2450 4666 
L 2450 531 
L 3481 531 
L 3481 0 
L 794 0 
L 794 531 
z
" transform="scale(0.015625)"/>
       </defs>
       <use xlink:href="#DejaVuSans-31"/>
       <use xlink:href="#DejaVuSans-30" x="63.623047"/>
       <use xlink:href="#DejaVuSans-30" x="127.246094"/>
      </g>
     </g>
    </g>
    <g id="xtick_3">
     <g id="line2d_5">
      <path d="M 260.050833 383.397812 
L 260.050833 32.837812 
" clip-path="url(#p6325e23365)" style="fill: none; stroke: #b0b0b0; stroke-opacity: 0.5; stroke-width: 0.8; stroke-linecap: square"/>
     </g>
     <g id="line2d_6">
      <g>
       <use xlink:href="#m577b61c0c6" x="260.050833" y="383.397812" style="stroke: #000000; stroke-width: 0.8"/>
      </g>
     </g>
     <g id="text_3">
      <!-- 200 -->
      <g transform="translate(250.507083 397.99625) scale(0.1 -0.1)">
       <defs>
        <path id="DejaVuSans-32" d="M 1228 531 
L 3431 531 
L 3431 0 
L 469 0 
L 469 531 
Q 828 903 1448 1529 
Q 2069 2156 2228 2338 
Q 2531 2678 2651 2914 
Q 2772 3150 2772 3378 
Q 2772 3750 2511 3984 
Q 2250 4219 1831 4219 
Q 1534 4219 1204 4116 
Q 875 4013 500 3803 
L 500 4441 
Q 881 4594 1212 4672 
Q 1544 4750 1819 4750 
Q 2544 4750 2975 4387 
Q 3406 4025 3406 3419 
Q 3406 3131 3298 2873 
Q 3191 2616 2906 2266 
Q 2828 2175 2409 1742 
Q 1991 1309 1228 531 
z
" transform="scale(0.015625)"/>
       </defs>
       <use xlink:href="#DejaVuSans-32"/>
       <use xlink:href="#DejaVuSans-30" x="63.623047"/>
       <use xlink:href="#DejaVuSans-30" x="127.246094"/>
      </g>
     </g>
    </g>
    <g id="xtick_4">
     <g id="line2d_7">
      <path d="M 368.76 383.397812 
L 368.76 32.837812 
" clip-path="url(#p6325e23365)" style="fill: none; stroke: #b0b0b0; stroke-opacity: 0.5; stroke-width: 0.8; stroke-linecap: square"/>
     </g>
     <g id="line2d_8">
      <g>
       <use xlink:href="#m577b61c0c6" x="368.76" y="383.397812" style="stroke: #000000; stroke-width: 0.8"/>
      </g>
     </g>
     <g id="text_4">
      <!-- 300 -->
      <g transform="translate(359.21625 397.99625) scale(0.1 -0.1)">
       <defs>
        <path id="DejaVuSans-33" d="M 2597 2516 
Q 3050 2419 3304 2112 
Q 3559 1806 3559 1356 
Q 3559 666 3084 287 
Q 2609 -91 1734 -91 
Q 1441 -91 1130 -33 
Q 819 25 488 141 
L 488 750 
Q 750 597 1062 519 
Q 1375 441 1716 441 
Q 2309 441 2620 675 
Q 2931 909 2931 1356 
Q 2931 1769 2642 2001 
Q 2353 2234 1838 2234 
L 1294 2234 
L 1294 2753 
L 1863 2753 
Q 2328 2753 2575 2939 
Q 2822 3125 2822 3475 
Q 2822 3834 2567 4026 
Q 2313 4219 1838 4219 
Q 1578 4219 1281 4162 
Q 984 4106 628 3988 
L 628 4550 
Q 988 4650 1302 4700 
Q 1616 4750 1894 4750 
Q 2613 4750 3031 4423 
Q 3450 4097 3450 3541 
Q 3450 3153 3228 2886 
Q 3006 2619 2597 2516 
z
" transform="scale(0.015625)"/>
       </defs>
       <use xlink:href="#DejaVuSans-33"/>
       <use xlink:href="#DejaVuSans-30" x="63.623047"/>
       <use xlink:href="#DejaVuSans-30" x="127.246094"/>
      </g>
     </g>
    </g>
    <g id="xtick_5">
     <g id="line2d_9">
      <path d="M 477.469167 383.397812 
L 477.469167 32.837812 
" clip-path="url(#p6325e23365)" style="fill: none; stroke: #b0b0b0; stroke-opacity: 0.5; stroke-width: 0.8; stroke-linecap: square"/>
     </g>
     <g id="line2d_10">
      <g>
       <use xlink:href="#m577b61c0c6" x="477.469167" y="383.397812" style="stroke: #000000; stroke-width: 0.8"/>
      </g>
     </g>
     <g id="text_5">
      <!-- 400 -->
      <g transform="translate(467.925417 397.99625) scale(0.1 -0.1)">
       <defs>
        <path id="DejaVuSans-34" d="M 2419 4116 
L 825 1625 
L 2419 1625 
L 2419 4116 
z
M 2253 4666 
L 3047 4666 
L 3047 1625 
L 3713 1625 
L 3713 1100 
L 3047 1100 
L 3047 0 
L 2419 0 
L 2419 1100 
L 313 1100 
L 313 1709 
L 2253 4666 
z
" transform="scale(0.015625)"/>
       </defs>
       <use xlink:href="#DejaVuSans-34"/>
       <use xlink:href="#DejaVuSans-30" x="63.623047"/>
       <use xlink:href="#DejaVuSans-30" x="127.246094"/>
      </g>
     </g>
    </g>
    <g id="xtick_6">
     <g id="line2d_11">
      <path d="M 586.178333 383.397812 
L 586.178333 32.837812 
" clip-path="url(#p6325e23365)" style="fill: none; stroke: #b0b0b0; stroke-opacity: 0.5; stroke-width: 0.8; stroke-linecap: square"/>
     </g>
     <g id="line2d_12">
      <g>
       <use xlink:href="#m577b61c0c6" x="586.178333" y="383.397812" style="stroke: #000000; stroke-width: 0.8"/>
      </g>
     </g>
     <g id="text_6">
      <!-- 500 -->
      <g transform="translate(576.634583 397.99625) scale(0.1 -0.1)">
       <defs>
        <path id="DejaVuSans-35" d="M 691 4666 
L 3169 4666 
L 3169 4134 
L 1269 4134 
L 1269 2991 
Q 1406 3038 1543 3061 
Q 1681 3084 1819 3084 
Q 2600 3084 3056 2656 
Q 3513 2228 3513 1497 
Q 3513 744 3044 326 
Q 2575 -91 1722 -91 
Q 1428 -91 1123 -41 
Q 819 9 494 109 
L 494 744 
Q 775 591 1075 516 
Q 1375 441 1709 441 
Q 2250 441 2565 725 
Q 2881 1009 2881 1497 
Q 2881 1984 2565 2268 
Q 2250 2553 1709 2553 
Q 1456 2553 1204 2497 
Q 953 2441 691 2322 
L 691 4666 
z
" transform="scale(0.015625)"/>
       </defs>
       <use xlink:href="#DejaVuSans-35"/>
       <use xlink:href="#DejaVuSans-30" x="63.623047"/>
       <use xlink:href="#DejaVuSans-30" x="127.246094"/>
      </g>
     </g>
    </g>
    <g id="xtick_7">
     <g id="line2d_13">
      <path d="M 694.8875 383.397812 
L 694.8875 32.837812 
" clip-path="url(#p6325e23365)" style="fill: none; stroke: #b0b0b0; stroke-opacity: 0.5; stroke-width: 0.8; stroke-linecap: square"/>
     </g>
     <g id="line2d_14">
      <g>
       <use xlink:href="#m577b61c0c6" x="694.8875" y="383.397812" style="stroke: #000000; stroke-width: 0.8"/>
      </g>
     </g>
     <g id="text_7">
      <!-- 600 -->
      <g transform="translate(685.34375 397.99625) scale(0.1 -0.1)">
       <defs>
        <path id="DejaVuSans-36" d="M 2113 2584 
Q 1688 2584 1439 2293 
Q 1191 2003 1191 1497 
Q 1191 994 1439 701 
Q 1688 409 2113 409 
Q 2538 409 2786 701 
Q 3034 994 3034 1497 
Q 3034 2003 2786 2293 
Q 2538 2584 2113 2584 
z
M 3366 4563 
L 3366 3988 
Q 3128 4100 2886 4159 
Q 2644 4219 2406 4219 
Q 1781 4219 1451 3797 
Q 1122 3375 1075 2522 
Q 1259 2794 1537 2939 
Q 1816 3084 2150 3084 
Q 2853 3084 3261 2657 
Q 3669 2231 3669 1497 
Q 3669 778 3244 343 
Q 2819 -91 2113 -91 
Q 1303 -91 875 529 
Q 447 1150 447 2328 
Q 447 3434 972 4092 
Q 1497 4750 2381 4750 
Q 2619 4750 2861 4703 
Q 3103 4656 3366 4563 
z
" transform="scale(0.015625)"/>
       </defs>
       <use xlink:href="#DejaVuSans-36"/>
       <use xlink:href="#DejaVuSans-30" x="63.623047"/>
       <use xlink:href="#DejaVuSans-30" x="127.246094"/>
      </g>
     </g>
    </g>
    <g id="text_8">
     <!-- Target Distance (cm) -->
     <g transform="translate(298.305 413.194062) scale(0.12 -0.12)">
      <defs>
       <path id="DejaVuSans-Bold-54" d="M 31 4666 
L 4331 4666 
L 4331 3756 
L 2784 3756 
L 2784 0 
L 1581 0 
L 1581 3756 
L 31 3756 
L 31 4666 
z
" transform="scale(0.015625)"/>
       <path id="DejaVuSans-Bold-61" d="M 2106 1575 
Q 1756 1575 1579 1456 
Q 1403 1338 1403 1106 
Q 1403 894 1545 773 
Q 1688 653 1941 653 
Q 2256 653 2472 879 
Q 2688 1106 2688 1447 
L 2688 1575 
L 2106 1575 
z
M 3816 1997 
L 3816 0 
L 2688 0 
L 2688 519 
Q 2463 200 2181 54 
Q 1900 -91 1497 -91 
Q 953 -91 614 226 
Q 275 544 275 1050 
Q 275 1666 698 1953 
Q 1122 2241 2028 2241 
L 2688 2241 
L 2688 2328 
Q 2688 2594 2478 2717 
Q 2269 2841 1825 2841 
Q 1466 2841 1156 2769 
Q 847 2697 581 2553 
L 581 3406 
Q 941 3494 1303 3539 
Q 1666 3584 2028 3584 
Q 2975 3584 3395 3211 
Q 3816 2838 3816 1997 
z
" transform="scale(0.015625)"/>
       <path id="DejaVuSans-Bold-72" d="M 3138 2547 
Q 2991 2616 2845 2648 
Q 2700 2681 2553 2681 
Q 2122 2681 1889 2404 
Q 1656 2128 1656 1613 
L 1656 0 
L 538 0 
L 538 3500 
L 1656 3500 
L 1656 2925 
Q 1872 3269 2151 3426 
Q 2431 3584 2822 3584 
Q 2878 3584 2943 3579 
Q 3009 3575 3134 3559 
L 3138 2547 
z
" transform="scale(0.015625)"/>
       <path id="DejaVuSans-Bold-67" d="M 2919 594 
Q 2688 288 2409 144 
Q 2131 0 1766 0 
Q 1125 0 706 504 
Q 288 1009 288 1791 
Q 288 2575 706 3076 
Q 1125 3578 1766 3578 
Q 2131 3578 2409 3434 
Q 2688 3291 2919 2981 
L 2919 3500 
L 4044 3500 
L 4044 353 
Q 4044 -491 3511 -936 
Q 2978 -1381 1966 -1381 
Q 1638 -1381 1331 -1331 
Q 1025 -1281 716 -1178 
L 716 -306 
Q 1009 -475 1290 -558 
Q 1572 -641 1856 -641 
Q 2406 -641 2662 -400 
Q 2919 -159 2919 353 
L 2919 594 
z
M 2181 2772 
Q 1834 2772 1640 2515 
Q 1447 2259 1447 1791 
Q 1447 1309 1634 1061 
Q 1822 813 2181 813 
Q 2531 813 2725 1069 
Q 2919 1325 2919 1791 
Q 2919 2259 2725 2515 
Q 2531 2772 2181 2772 
z
" transform="scale(0.015625)"/>
       <path id="DejaVuSans-Bold-65" d="M 4031 1759 
L 4031 1441 
L 1416 1441 
Q 1456 1047 1700 850 
Q 1944 653 2381 653 
Q 2734 653 3104 758 
Q 3475 863 3866 1075 
L 3866 213 
Q 3469 63 3072 -14 
Q 2675 -91 2278 -91 
Q 1328 -91 801 392 
Q 275 875 275 1747 
Q 275 2603 792 3093 
Q 1309 3584 2216 3584 
Q 3041 3584 3536 3087 
Q 4031 2591 4031 1759 
z
M 2881 2131 
Q 2881 2450 2695 2645 
Q 2509 2841 2209 2841 
Q 1884 2841 1681 2658 
Q 1478 2475 1428 2131 
L 2881 2131 
z
" transform="scale(0.015625)"/>
       <path id="DejaVuSans-Bold-74" d="M 1759 4494 
L 1759 3500 
L 2913 3500 
L 2913 2700 
L 1759 2700 
L 1759 1216 
Q 1759 972 1856 886 
Q 1953 800 2241 800 
L 2816 800 
L 2816 0 
L 1856 0 
Q 1194 0 917 276 
Q 641 553 641 1216 
L 641 2700 
L 84 2700 
L 84 3500 
L 641 3500 
L 641 4494 
L 1759 4494 
z
" transform="scale(0.015625)"/>
       <path id="DejaVuSans-Bold-20" transform="scale(0.015625)"/>
       <path id="DejaVuSans-Bold-44" d="M 1791 3756 
L 1791 909 
L 2222 909 
Q 2959 909 3348 1275 
Q 3738 1641 3738 2338 
Q 3738 3031 3350 3393 
Q 2963 3756 2222 3756 
L 1791 3756 
z
M 588 4666 
L 1856 4666 
Q 2919 4666 3439 4514 
Q 3959 4363 4331 4000 
Q 4659 3684 4818 3271 
Q 4978 2859 4978 2338 
Q 4978 1809 4818 1395 
Q 4659 981 4331 666 
Q 3956 303 3431 151 
Q 2906 0 1856 0 
L 588 0 
L 588 4666 
z
" transform="scale(0.015625)"/>
       <path id="DejaVuSans-Bold-69" d="M 538 3500 
L 1656 3500 
L 1656 0 
L 538 0 
L 538 3500 
z
M 538 4863 
L 1656 4863 
L 1656 3950 
L 538 3950 
L 538 4863 
z
" transform="scale(0.015625)"/>
       <path id="DejaVuSans-Bold-73" d="M 3272 3391 
L 3272 2541 
Q 2913 2691 2578 2766 
Q 2244 2841 1947 2841 
Q 1628 2841 1473 2761 
Q 1319 2681 1319 2516 
Q 1319 2381 1436 2309 
Q 1553 2238 1856 2203 
L 2053 2175 
Q 2913 2066 3209 1816 
Q 3506 1566 3506 1031 
Q 3506 472 3093 190 
Q 2681 -91 1863 -91 
Q 1516 -91 1145 -36 
Q 775 19 384 128 
L 384 978 
Q 719 816 1070 734 
Q 1422 653 1784 653 
Q 2113 653 2278 743 
Q 2444 834 2444 1013 
Q 2444 1163 2330 1236 
Q 2216 1309 1875 1350 
L 1678 1375 
Q 931 1469 631 1722 
Q 331 1975 331 2491 
Q 331 3047 712 3315 
Q 1094 3584 1881 3584 
Q 2191 3584 2531 3537 
Q 2872 3491 3272 3391 
z
" transform="scale(0.015625)"/>
       <path id="DejaVuSans-Bold-6e" d="M 4056 2131 
L 4056 0 
L 2931 0 
L 2931 347 
L 2931 1631 
Q 2931 2084 2911 2256 
Q 2891 2428 2841 2509 
Q 2775 2619 2662 2680 
Q 2550 2741 2406 2741 
Q 2056 2741 1856 2470 
Q 1656 2200 1656 1722 
L 1656 0 
L 538 0 
L 538 3500 
L 1656 3500 
L 1656 2988 
Q 1909 3294 2193 3439 
Q 2478 3584 2822 3584 
Q 3428 3584 3742 3212 
Q 4056 2841 4056 2131 
z
" transform="scale(0.015625)"/>
       <path id="DejaVuSans-Bold-63" d="M 3366 3391 
L 3366 2478 
Q 3138 2634 2908 2709 
Q 2678 2784 2431 2784 
Q 1963 2784 1702 2511 
Q 1441 2238 1441 1747 
Q 1441 1256 1702 982 
Q 1963 709 2431 709 
Q 2694 709 2930 787 
Q 3166 866 3366 1019 
L 3366 103 
Q 3103 6 2833 -42 
Q 2563 -91 2291 -91 
Q 1344 -91 809 395 
Q 275 881 275 1747 
Q 275 2613 809 3098 
Q 1344 3584 2291 3584 
Q 2566 3584 2833 3536 
Q 3100 3488 3366 3391 
z
" transform="scale(0.015625)"/>
       <path id="DejaVuSans-Bold-28" d="M 2413 -844 
L 1484 -844 
Q 1006 -72 778 623 
Q 550 1319 550 2003 
Q 550 2688 779 3389 
Q 1009 4091 1484 4856 
L 2413 4856 
Q 2013 4116 1813 3408 
Q 1613 2700 1613 2009 
Q 1613 1319 1811 609 
Q 2009 -100 2413 -844 
z
" transform="scale(0.015625)"/>
       <path id="DejaVuSans-Bold-6d" d="M 3781 2919 
Q 3994 3244 4286 3414 
Q 4578 3584 4928 3584 
Q 5531 3584 5847 3212 
Q 6163 2841 6163 2131 
L 6163 0 
L 5038 0 
L 5038 1825 
Q 5041 1866 5042 1909 
Q 5044 1953 5044 2034 
Q 5044 2406 4934 2573 
Q 4825 2741 4581 2741 
Q 4263 2741 4089 2478 
Q 3916 2216 3909 1719 
L 3909 0 
L 2784 0 
L 2784 1825 
Q 2784 2406 2684 2573 
Q 2584 2741 2328 2741 
Q 2006 2741 1831 2477 
Q 1656 2213 1656 1722 
L 1656 0 
L 531 0 
L 531 3500 
L 1656 3500 
L 1656 2988 
Q 1863 3284 2130 3434 
Q 2397 3584 2719 3584 
Q 3081 3584 3359 3409 
Q 3638 3234 3781 2919 
z
" transform="scale(0.015625)"/>
       <path id="DejaVuSans-Bold-29" d="M 513 -844 
Q 913 -100 1113 609 
Q 1313 1319 1313 2009 
Q 1313 2700 1113 3408 
Q 913 4116 513 4856 
L 1441 4856 
Q 1916 4091 2145 3389 
Q 2375 2688 2375 2003 
Q 2375 1319 2147 623 
Q 1919 -72 1441 -844 
L 513 -844 
z
" transform="scale(0.015625)"/>
      </defs>
      <use xlink:href="#DejaVuSans-Bold-54"/>
      <use xlink:href="#DejaVuSans-Bold-61" x="55.337891"/>
      <use xlink:href="#DejaVuSans-Bold-72" x="122.818359"/>
      <use xlink:href="#DejaVuSans-Bold-67" x="172.134766"/>
      <use xlink:href="#DejaVuSans-Bold-65" x="243.716797"/>
      <use xlink:href="#DejaVuSans-Bold-74" x="311.539062"/>
      <use xlink:href="#DejaVuSans-Bold-20" x="359.341797"/>
      <use xlink:href="#DejaVuSans-Bold-44" x="394.15625"/>
      <use xlink:href="#DejaVuSans-Bold-69" x="477.164062"/>
      <use xlink:href="#DejaVuSans-Bold-73" x="511.441406"/>
      <use xlink:href="#DejaVuSans-Bold-74" x="570.962891"/>
      <use xlink:href="#DejaVuSans-Bold-61" x="618.765625"/>
      <use xlink:href="#DejaVuSans-Bold-6e" x="686.246094"/>
      <use xlink:href="#DejaVuSans-Bold-63" x="757.4375"/>
      <use xlink:href="#DejaVuSans-Bold-65" x="816.714844"/>
      <use xlink:href="#DejaVuSans-Bold-20" x="884.537109"/>
      <use xlink:href="#DejaVuSans-Bold-28" x="919.351562"/>
      <use xlink:href="#DejaVuSans-Bold-63" x="965.054688"/>
      <use xlink:href="#DejaVuSans-Bold-6d" x="1024.332031"/>
      <use xlink:href="#DejaVuSans-Bold-29" x="1128.53125"/>
     </g>
    </g>
   </g>
   <g id="matplotlib.axis_2">
    <g id="ytick_1">
     <g id="line2d_15">
      <path d="M 42.6325 314.056383 
L 694.8875 314.056383 
" clip-path="url(#p6325e23365)" style="fill: none; stroke: #b0b0b0; stroke-opacity: 0.5; stroke-width: 0.8; stroke-linecap: square"/>
     </g>
     <g id="line2d_16">
      <defs>
       <path id="m67a55b63fc" d="M 0 0 
L -3.5 0 
" style="stroke: #000000; stroke-width: 0.8"/>
      </defs>
      <g>
       <use xlink:href="#m67a55b63fc" x="42.6325" y="314.056383" style="stroke: #000000; stroke-width: 0.8"/>
      </g>
     </g>
     <g id="text_9">
      <!-- 10 -->
      <g transform="translate(22.9075 317.855601) scale(0.1 -0.1)">
       <use xlink:href="#DejaVuSans-31"/>
       <use xlink:href="#DejaVuSans-30" x="63.623047"/>
      </g>
     </g>
    </g>
    <g id="ytick_2">
     <g id="line2d_17">
      <path d="M 42.6325 244.152387 
L 694.8875 244.152387 
" clip-path="url(#p6325e23365)" style="fill: none; stroke: #b0b0b0; stroke-opacity: 0.5; stroke-width: 0.8; stroke-linecap: square"/>
     </g>
     <g id="line2d_18">
      <g>
       <use xlink:href="#m67a55b63fc" x="42.6325" y="244.152387" style="stroke: #000000; stroke-width: 0.8"/>
      </g>
     </g>
     <g id="text_10">
      <!-- 20 -->
      <g transform="translate(22.9075 247.951606) scale(0.1 -0.1)">
       <use xlink:href="#DejaVuSans-32"/>
       <use xlink:href="#DejaVuSans-30" x="63.623047"/>
      </g>
     </g>
    </g>
    <g id="ytick_3">
     <g id="line2d_19">
      <path d="M 42.6325 174.248391 
L 694.8875 174.248391 
" clip-path="url(#p6325e23365)" style="fill: none; stroke: #b0b0b0; stroke-opacity: 0.5; stroke-width: 0.8; stroke-linecap: square"/>
     </g>
     <g id="line2d_20">
      <g>
       <use xlink:href="#m67a55b63fc" x="42.6325" y="174.248391" style="stroke: #000000; stroke-width: 0.8"/>
      </g>
     </g>
     <g id="text_11">
      <!-- 30 -->
      <g transform="translate(22.9075 178.04761) scale(0.1 -0.1)">
       <use xlink:href="#DejaVuSans-33"/>
       <use xlink:href="#DejaVuSans-30" x="63.623047"/>
      </g>
     </g>
    </g>
    <g id="ytick_4">
     <g id="line2d_21">
      <path d="M 42.6325 104.344396 
L 694.8875 104.344396 
" clip-path="url(#p6325e23365)" style="fill: none; stroke: #b0b0b0; stroke-opacity: 0.5; stroke-width: 0.8; stroke-linecap: square"/>
     </g>
     <g id="line2d_22">
      <g>
       <use xlink:href="#m67a55b63fc" x="42.6325" y="104.344396" style="stroke: #000000; stroke-width: 0.8"/>
      </g>
     </g>
     <g id="text_12">
      <!-- 40 -->
      <g transform="translate(22.9075 108.143615) scale(0.1 -0.1)">
       <use xlink:href="#DejaVuSans-34"/>
       <use xlink:href="#DejaVuSans-30" x="63.623047"/>
      </g>
     </g>
    </g>
    <g id="ytick_5">
     <g id="line2d_23">
      <path d="M 42.6325 34.4404 
L 694.8875 34.4404 
" clip-path="url(#p6325e23365)" style="fill: none; stroke: #b0b0b0; stroke-opacity: 0.5; stroke-width: 0.8; stroke-linecap: square"/>
     </g>
     <g id="line2d_24">
      <g>
       <use xlink:href="#m67a55b63fc" x="42.6325" y="34.4404" style="stroke: #000000; stroke-width: 0.8"/>
      </g>
     </g>
     <g id="text_13">
      <!-- 50 -->
      <g transform="translate(22.9075 38.239619) scale(0.1 -0.1)">
       <use xlink:href="#DejaVuSans-35"/>
       <use xlink:href="#DejaVuSans-30" x="63.623047"/>
      </g>
     </g>
    </g>
    <g id="text_14">
     <!-- Average Error (in)  ± 2σ -->
     <g transform="translate(16.318125 289.125312) rotate(-90) scale(0.12 -0.12)">
      <defs>
       <path id="DejaVuSans-Bold-41" d="M 3419 850 
L 1538 850 
L 1241 0 
L 31 0 
L 1759 4666 
L 3194 4666 
L 4922 0 
L 3713 0 
L 3419 850 
z
M 1838 1716 
L 3116 1716 
L 2478 3572 
L 1838 1716 
z
" transform="scale(0.015625)"/>
       <path id="DejaVuSans-Bold-76" d="M 97 3500 
L 1216 3500 
L 2088 1081 
L 2956 3500 
L 4078 3500 
L 2700 0 
L 1472 0 
L 97 3500 
z
" transform="scale(0.015625)"/>
       <path id="DejaVuSans-Bold-45" d="M 588 4666 
L 3834 4666 
L 3834 3756 
L 1791 3756 
L 1791 2888 
L 3713 2888 
L 3713 1978 
L 1791 1978 
L 1791 909 
L 3903 909 
L 3903 0 
L 588 0 
L 588 4666 
z
" transform="scale(0.015625)"/>
       <path id="DejaVuSans-Bold-6f" d="M 2203 2784 
Q 1831 2784 1636 2517 
Q 1441 2250 1441 1747 
Q 1441 1244 1636 976 
Q 1831 709 2203 709 
Q 2569 709 2762 976 
Q 2956 1244 2956 1747 
Q 2956 2250 2762 2517 
Q 2569 2784 2203 2784 
z
M 2203 3584 
Q 3106 3584 3614 3096 
Q 4122 2609 4122 1747 
Q 4122 884 3614 396 
Q 3106 -91 2203 -91 
Q 1297 -91 786 396 
Q 275 884 275 1747 
Q 275 2609 786 3096 
Q 1297 3584 2203 3584 
z
" transform="scale(0.015625)"/>
       <path id="DejaVuSans-Bold-b1" d="M 3053 4013 
L 3053 2906 
L 4684 2906 
L 4684 2169 
L 3053 2169 
L 3053 1063 
L 2309 1063 
L 2309 2169 
L 678 2169 
L 678 2906 
L 2309 2906 
L 2309 4013 
L 3053 4013 
z
M 678 744 
L 4684 744 
L 4684 0 
L 678 0 
L 678 744 
z
" transform="scale(0.015625)"/>
       <path id="DejaVuSans-Bold-32" d="M 1844 884 
L 3897 884 
L 3897 0 
L 506 0 
L 506 884 
L 2209 2388 
Q 2438 2594 2547 2791 
Q 2656 2988 2656 3200 
Q 2656 3528 2436 3728 
Q 2216 3928 1850 3928 
Q 1569 3928 1234 3808 
Q 900 3688 519 3450 
L 519 4475 
Q 925 4609 1322 4679 
Q 1719 4750 2100 4750 
Q 2938 4750 3402 4381 
Q 3866 4013 3866 3353 
Q 3866 2972 3669 2642 
Q 3472 2313 2841 1759 
L 1844 884 
z
" transform="scale(0.015625)"/>
       <path id="DejaVuSans-Bold-3c3" d="M 2200 2784 
Q 1831 2784 1636 2517 
Q 1441 2250 1441 1747 
Q 1441 1244 1636 976 
Q 1831 709 2200 709 
Q 2569 709 2762 976 
Q 2956 1244 2956 1747 
Q 2956 2250 2762 2517 
Q 2569 2784 2200 2784 
z
M 4650 2700 
L 3916 2700 
Q 4122 2291 4122 1747 
Q 4122 884 3614 396 
Q 3106 -91 2203 -91 
Q 1297 -91 786 396 
Q 275 884 275 1747 
Q 275 2609 788 3097 
Q 1209 3500 2203 3500 
L 4650 3500 
L 4650 2700 
z
" transform="scale(0.015625)"/>
      </defs>
      <use xlink:href="#DejaVuSans-Bold-41"/>
      <use xlink:href="#DejaVuSans-Bold-76" x="73.767578"/>
      <use xlink:href="#DejaVuSans-Bold-65" x="138.953125"/>
      <use xlink:href="#DejaVuSans-Bold-72" x="206.775391"/>
      <use xlink:href="#DejaVuSans-Bold-61" x="256.091797"/>
      <use xlink:href="#DejaVuSans-Bold-67" x="323.572266"/>
      <use xlink:href="#DejaVuSans-Bold-65" x="395.154297"/>
      <use xlink:href="#DejaVuSans-Bold-20" x="462.976562"/>
      <use xlink:href="#DejaVuSans-Bold-45" x="497.791016"/>
      <use xlink:href="#DejaVuSans-Bold-72" x="566.101562"/>
      <use xlink:href="#DejaVuSans-Bold-72" x="615.417969"/>
      <use xlink:href="#DejaVuSans-Bold-6f" x="664.734375"/>
      <use xlink:href="#DejaVuSans-Bold-72" x="733.435547"/>
      <use xlink:href="#DejaVuSans-Bold-20" x="782.751953"/>
      <use xlink:href="#DejaVuSans-Bold-28" x="817.566406"/>
      <use xlink:href="#DejaVuSans-Bold-69" x="863.269531"/>
      <use xlink:href="#DejaVuSans-Bold-6e" x="897.546875"/>
      <use xlink:href="#DejaVuSans-Bold-29" x="968.738281"/>
      <use xlink:href="#DejaVuSans-Bold-20" x="1014.441406"/>
      <use xlink:href="#DejaVuSans-Bold-20" x="1049.255859"/>
      <use xlink:href="#DejaVuSans-Bold-b1" x="1084.070312"/>
      <use xlink:href="#DejaVuSans-Bold-20" x="1167.859375"/>
      <use xlink:href="#DejaVuSans-Bold-32" x="1202.673828"/>
      <use xlink:href="#DejaVuSans-Bold-3c3" x="1272.253906"/>
     </g>
    </g>
   </g>
   <g id="LineCollection_1">
    <path d="M 151.341667 327.306214 
L 151.341667 198.68487 
" clip-path="url(#p6325e23365)" style="fill: none; stroke: #4472c4"/>
    <path d="M 260.050833 299.876334 
L 260.050833 260.806408 
" clip-path="url(#p6325e23365)" style="fill: none; stroke: #4472c4"/>
    <path d="M 368.76 280.428191 
L 368.76 211.715633 
" clip-path="url(#p6325e23365)" style="fill: none; stroke: #4472c4"/>
    <path d="M 477.469167 261.588073 
L 477.469167 190.78877 
" clip-path="url(#p6325e23365)" style="fill: none; stroke: #4472c4"/>
    <path d="M 586.178333 214.019142 
L 586.178333 144.89096 
" clip-path="url(#p6325e23365)" style="fill: none; stroke: #4472c4"/>
   </g>
   <g id="line2d_25">
    <defs>
     <path id="m4471dcd8bb" d="M 5 0 
L -5 -0 
" style="stroke: #4472c4"/>
    </defs>
    <g clip-path="url(#p6325e23365)">
     <use xlink:href="#m4471dcd8bb" x="151.341667" y="327.306214" style="fill: #4472c4; stroke: #4472c4"/>
     <use xlink:href="#m4471dcd8bb" x="260.050833" y="299.876334" style="fill: #4472c4; stroke: #4472c4"/>
     <use xlink:href="#m4471dcd8bb" x="368.76" y="280.428191" style="fill: #4472c4; stroke: #4472c4"/>
     <use xlink:href="#m4471dcd8bb" x="477.469167" y="261.588073" style="fill: #4472c4; stroke: #4472c4"/>
     <use xlink:href="#m4471dcd8bb" x="586.178333" y="214.019142" style="fill: #4472c4; stroke: #4472c4"/>
    </g>
   </g>
   <g id="line2d_26">
    <g clip-path="url(#p6325e23365)">
     <use xlink:href="#m4471dcd8bb" x="151.341667" y="198.68487" style="fill: #4472c4; stroke: #4472c4"/>
     <use xlink:href="#m4471dcd8bb" x="260.050833" y="260.806408" style="fill: #4472c4; stroke: #4472c4"/>
     <use xlink:href="#m4471dcd8bb" x="368.76" y="211.715633" style="fill: #4472c4; stroke: #4472c4"/>
     <use xlink:href="#m4471dcd8bb" x="477.469167" y="190.78877" style="fill: #4472c4; stroke: #4472c4"/>
     <use xlink:href="#m4471dcd8bb" x="586.178333" y="144.89096" style="fill: #4472c4; stroke: #4472c4"/>
    </g>
   </g>
   <g id="LineCollection_2">
    <path d="M 151.341667 367.463267 
L 151.341667 337.543707 
" clip-path="url(#p6325e23365)" style="fill: none; stroke: #ed7d31"/>
    <path d="M 260.050833 342.756437 
L 260.050833 300.681522 
" clip-path="url(#p6325e23365)" style="fill: none; stroke: #ed7d31"/>
    <path d="M 368.76 305.452107 
L 368.76 248.12802 
" clip-path="url(#p6325e23365)" style="fill: none; stroke: #ed7d31"/>
    <path d="M 477.469167 361.879677 
L 477.469167 115.528112 
" clip-path="url(#p6325e23365)" style="fill: none; stroke: #ed7d31"/>
    <path d="M 586.178333 307.572896 
L 586.178333 48.772358 
" clip-path="url(#p6325e23365)" style="fill: none; stroke: #ed7d31"/>
   </g>
   <g id="line2d_27">
    <defs>
     <path id="m96ea6d3297" d="M 5 0 
L -5 -0 
" style="stroke: #ed7d31"/>
    </defs>
    <g clip-path="url(#p6325e23365)">
     <use xlink:href="#m96ea6d3297" x="151.341667" y="367.463267" style="fill: #ed7d31; stroke: #ed7d31"/>
     <use xlink:href="#m96ea6d3297" x="260.050833" y="342.756437" style="fill: #ed7d31; stroke: #ed7d31"/>
     <use xlink:href="#m96ea6d3297" x="368.76" y="305.452107" style="fill: #ed7d31; stroke: #ed7d31"/>
     <use xlink:href="#m96ea6d3297" x="477.469167" y="361.879677" style="fill: #ed7d31; stroke: #ed7d31"/>
     <use xlink:href="#m96ea6d3297" x="586.178333" y="307.572896" style="fill: #ed7d31; stroke: #ed7d31"/>
    </g>
   </g>
   <g id="line2d_28">
    <g clip-path="url(#p6325e23365)">
     <use xlink:href="#m96ea6d3297" x="151.341667" y="337.543707" style="fill: #ed7d31; stroke: #ed7d31"/>
     <use xlink:href="#m96ea6d3297" x="260.050833" y="300.681522" style="fill: #ed7d31; stroke: #ed7d31"/>
     <use xlink:href="#m96ea6d3297" x="368.76" y="248.12802" style="fill: #ed7d31; stroke: #ed7d31"/>
     <use xlink:href="#m96ea6d3297" x="477.469167" y="115.528112" style="fill: #ed7d31; stroke: #ed7d31"/>
     <use xlink:href="#m96ea6d3297" x="586.178333" y="48.772358" style="fill: #ed7d31; stroke: #ed7d31"/>
    </g>
   </g>
   <g id="LineCollection_3">
    <path d="M 151.341667 314.546481 
L 151.341667 264.640981 
" clip-path="url(#p6325e23365)" style="fill: none; stroke: #92d050"/>
    <path d="M 260.050833 355.155462 
L 260.050833 278.267036 
" clip-path="url(#p6325e23365)" style="fill: none; stroke: #92d050"/>
    <path d="M 368.76 320.512996 
L 368.76 267.118765 
" clip-path="url(#p6325e23365)" style="fill: none; stroke: #92d050"/>
    <path d="M 477.469167 335.023375 
L 477.469167 130.126493 
" clip-path="url(#p6325e23365)" style="fill: none; stroke: #92d050"/>
    <path d="M 586.178333 213.178038 
L 586.178333 161.060925 
" clip-path="url(#p6325e23365)" style="fill: none; stroke: #92d050"/>
   </g>
   <g id="line2d_29">
    <defs>
     <path id="m5da6ae7015" d="M 5 0 
L -5 -0 
" style="stroke: #92d050"/>
    </defs>
    <g clip-path="url(#p6325e23365)">
     <use xlink:href="#m5da6ae7015" x="151.341667" y="314.546481" style="fill: #92d050; stroke: #92d050"/>
     <use xlink:href="#m5da6ae7015" x="260.050833" y="355.155462" style="fill: #92d050; stroke: #92d050"/>
     <use xlink:href="#m5da6ae7015" x="368.76" y="320.512996" style="fill: #92d050; stroke: #92d050"/>
     <use xlink:href="#m5da6ae7015" x="477.469167" y="335.023375" style="fill: #92d050; stroke: #92d050"/>
     <use xlink:href="#m5da6ae7015" x="586.178333" y="213.178038" style="fill: #92d050; stroke: #92d050"/>
    </g>
   </g>
   <g id="line2d_30">
    <g clip-path="url(#p6325e23365)">
     <use xlink:href="#m5da6ae7015" x="151.341667" y="264.640981" style="fill: #92d050; stroke: #92d050"/>
     <use xlink:href="#m5da6ae7015" x="260.050833" y="278.267036" style="fill: #92d050; stroke: #92d050"/>
     <use xlink:href="#m5da6ae7015" x="368.76" y="267.118765" style="fill: #92d050; stroke: #92d050"/>
     <use xlink:href="#m5da6ae7015" x="477.469167" y="130.126493" style="fill: #92d050; stroke: #92d050"/>
     <use xlink:href="#m5da6ae7015" x="586.178333" y="161.060925" style="fill: #92d050; stroke: #92d050"/>
    </g>
   </g>
   <g id="line2d_31">
    <path d="M 151.341667 262.995542 
L 260.050833 280.341371 
L 368.76 246.071912 
L 477.469167 226.188421 
L 586.178333 179.455051 
" clip-path="url(#p6325e23365)" style="fill: none; stroke: #4472c4; stroke-width: 2; stroke-linecap: square"/>
    <defs>
     <path id="m9550f8bf0c" d="M 0 3 
C 0.795609 3 1.55874 2.683901 2.12132 2.12132 
C 2.683901 1.55874 3 0.795609 3 0 
C 3 -0.795609 2.683901 -1.55874 2.12132 -2.12132 
C 1.55874 -2.683901 0.795609 -3 0 -3 
C -0.795609 -3 -1.55874 -2.683901 -2.12132 -2.12132 
C -2.683901 -1.55874 -3 -0.795609 -3 0 
C -3 0.795609 -2.683901 1.55874 -2.12132 2.12132 
C -1.55874 2.683901 -0.795609 3 0 3 
z
" style="stroke: #4472c4"/>
    </defs>
    <g clip-path="url(#p6325e23365)">
     <use xlink:href="#m9550f8bf0c" x="151.341667" y="262.995542" style="fill: #4472c4; stroke: #4472c4"/>
     <use xlink:href="#m9550f8bf0c" x="260.050833" y="280.341371" style="fill: #4472c4; stroke: #4472c4"/>
     <use xlink:href="#m9550f8bf0c" x="368.76" y="246.071912" style="fill: #4472c4; stroke: #4472c4"/>
     <use xlink:href="#m9550f8bf0c" x="477.469167" y="226.188421" style="fill: #4472c4; stroke: #4472c4"/>
     <use xlink:href="#m9550f8bf0c" x="586.178333" y="179.455051" style="fill: #4472c4; stroke: #4472c4"/>
    </g>
   </g>
   <g id="line2d_32">
    <path d="M 151.341667 352.503487 
L 260.050833 321.718979 
L 368.76 276.790063 
L 477.469167 238.703895 
L 586.178333 178.172627 
" clip-path="url(#p6325e23365)" style="fill: none; stroke: #ed7d31; stroke-width: 2; stroke-linecap: square"/>
    <defs>
     <path id="m027818e99c" d="M 0 3 
C 0.795609 3 1.55874 2.683901 2.12132 2.12132 
C 2.683901 1.55874 3 0.795609 3 0 
C 3 -0.795609 2.683901 -1.55874 2.12132 -2.12132 
C 1.55874 -2.683901 0.795609 -3 0 -3 
C -0.795609 -3 -1.55874 -2.683901 -2.12132 -2.12132 
C -2.683901 -1.55874 -3 -0.795609 -3 0 
C -3 0.795609 -2.683901 1.55874 -2.12132 2.12132 
C -1.55874 2.683901 -0.795609 3 0 3 
z
" style="stroke: #ed7d31"/>
    </defs>
    <g clip-path="url(#p6325e23365)">
     <use xlink:href="#m027818e99c" x="151.341667" y="352.503487" style="fill: #ed7d31; stroke: #ed7d31"/>
     <use xlink:href="#m027818e99c" x="260.050833" y="321.718979" style="fill: #ed7d31; stroke: #ed7d31"/>
     <use xlink:href="#m027818e99c" x="368.76" y="276.790063" style="fill: #ed7d31; stroke: #ed7d31"/>
     <use xlink:href="#m027818e99c" x="477.469167" y="238.703895" style="fill: #ed7d31; stroke: #ed7d31"/>
     <use xlink:href="#m027818e99c" x="586.178333" y="178.172627" style="fill: #ed7d31; stroke: #ed7d31"/>
    </g>
   </g>
   <g id="line2d_33">
    <path d="M 151.341667 289.593731 
L 260.050833 316.711249 
L 368.76 293.81588 
L 477.469167 232.574934 
L 586.178333 187.119481 
" clip-path="url(#p6325e23365)" style="fill: none; stroke: #92d050; stroke-width: 2; stroke-linecap: square"/>
    <defs>
     <path id="ma5819dbdaa" d="M 0 3 
C 0.795609 3 1.55874 2.683901 2.12132 2.12132 
C 2.683901 1.55874 3 0.795609 3 0 
C 3 -0.795609 2.683901 -1.55874 2.12132 -2.12132 
C 1.55874 -2.683901 0.795609 -3 0 -3 
C -0.795609 -3 -1.55874 -2.683901 -2.12132 -2.12132 
C -2.683901 -1.55874 -3 -0.795609 -3 0 
C -3 0.795609 -2.683901 1.55874 -2.12132 2.12132 
C -1.55874 2.683901 -0.795609 3 0 3 
z
" style="stroke: #92d050"/>
    </defs>
    <g clip-path="url(#p6325e23365)">
     <use xlink:href="#ma5819dbdaa" x="151.341667" y="289.593731" style="fill: #92d050; stroke: #92d050"/>
     <use xlink:href="#ma5819dbdaa" x="260.050833" y="316.711249" style="fill: #92d050; stroke: #92d050"/>
     <use xlink:href="#ma5819dbdaa" x="368.76" y="293.81588" style="fill: #92d050; stroke: #92d050"/>
     <use xlink:href="#ma5819dbdaa" x="477.469167" y="232.574934" style="fill: #92d050; stroke: #92d050"/>
     <use xlink:href="#ma5819dbdaa" x="586.178333" y="187.119481" style="fill: #92d050; stroke: #92d050"/>
    </g>
   </g>
   <g id="patch_3">
    <path d="M 42.6325 383.397812 
L 42.6325 32.837812 
" style="fill: none; stroke: #000000; stroke-width: 0.8; stroke-linejoin: miter; stroke-linecap: square"/>
   </g>
   <g id="patch_4">
    <path d="M 42.6325 383.397812 
L 694.8875 383.397812 
" style="fill: none; stroke: #000000; stroke-width: 0.8; stroke-linejoin: miter; stroke-linecap: square"/>
   </g>
   <g id="text_15">
    <!-- Average Error vs. Target Distance (Wide Spread) -->
    <g transform="translate(176.650469 17.837812) scale(0.14 -0.14)">
     <defs>
      <path id="DejaVuSans-Bold-2e" d="M 653 1209 
L 1778 1209 
L 1778 0 
L 653 0 
L 653 1209 
z
" transform="scale(0.015625)"/>
      <path id="DejaVuSans-Bold-57" d="M 191 4666 
L 1344 4666 
L 2150 1275 
L 2950 4666 
L 4109 4666 
L 4909 1275 
L 5716 4666 
L 6859 4666 
L 5759 0 
L 4372 0 
L 3525 3547 
L 2688 0 
L 1300 0 
L 191 4666 
z
" transform="scale(0.015625)"/>
      <path id="DejaVuSans-Bold-64" d="M 2919 2988 
L 2919 4863 
L 4044 4863 
L 4044 0 
L 2919 0 
L 2919 506 
Q 2688 197 2409 53 
Q 2131 -91 1766 -91 
Q 1119 -91 703 423 
Q 288 938 288 1747 
Q 288 2556 703 3070 
Q 1119 3584 1766 3584 
Q 2128 3584 2408 3439 
Q 2688 3294 2919 2988 
z
M 2181 722 
Q 2541 722 2730 984 
Q 2919 1247 2919 1747 
Q 2919 2247 2730 2509 
Q 2541 2772 2181 2772 
Q 1825 2772 1636 2509 
Q 1447 2247 1447 1747 
Q 1447 1247 1636 984 
Q 1825 722 2181 722 
z
" transform="scale(0.015625)"/>
      <path id="DejaVuSans-Bold-53" d="M 3834 4519 
L 3834 3531 
Q 3450 3703 3084 3790 
Q 2719 3878 2394 3878 
Q 1963 3878 1756 3759 
Q 1550 3641 1550 3391 
Q 1550 3203 1689 3098 
Q 1828 2994 2194 2919 
L 2706 2816 
Q 3484 2659 3812 2340 
Q 4141 2022 4141 1434 
Q 4141 663 3683 286 
Q 3225 -91 2284 -91 
Q 1841 -91 1394 -6 
Q 947 78 500 244 
L 500 1259 
Q 947 1022 1364 901 
Q 1781 781 2169 781 
Q 2563 781 2772 912 
Q 2981 1044 2981 1288 
Q 2981 1506 2839 1625 
Q 2697 1744 2272 1838 
L 1806 1941 
Q 1106 2091 782 2419 
Q 459 2747 459 3303 
Q 459 4000 909 4375 
Q 1359 4750 2203 4750 
Q 2588 4750 2994 4692 
Q 3400 4634 3834 4519 
z
" transform="scale(0.015625)"/>
      <path id="DejaVuSans-Bold-70" d="M 1656 506 
L 1656 -1331 
L 538 -1331 
L 538 3500 
L 1656 3500 
L 1656 2988 
Q 1888 3294 2169 3439 
Q 2450 3584 2816 3584 
Q 3463 3584 3878 3070 
Q 4294 2556 4294 1747 
Q 4294 938 3878 423 
Q 3463 -91 2816 -91 
Q 2450 -91 2169 54 
Q 1888 200 1656 506 
z
M 2400 2772 
Q 2041 2772 1848 2508 
Q 1656 2244 1656 1747 
Q 1656 1250 1848 986 
Q 2041 722 2400 722 
Q 2759 722 2948 984 
Q 3138 1247 3138 1747 
Q 3138 2247 2948 2509 
Q 2759 2772 2400 2772 
z
" transform="scale(0.015625)"/>
     </defs>
     <use xlink:href="#DejaVuSans-Bold-41"/>
     <use xlink:href="#DejaVuSans-Bold-76" x="73.767578"/>
     <use xlink:href="#DejaVuSans-Bold-65" x="138.953125"/>
     <use xlink:href="#DejaVuSans-Bold-72" x="206.775391"/>
     <use xlink:href="#DejaVuSans-Bold-61" x="256.091797"/>
     <use xlink:href="#DejaVuSans-Bold-67" x="323.572266"/>
     <use xlink:href="#DejaVuSans-Bold-65" x="395.154297"/>
     <use xlink:href="#DejaVuSans-Bold-20" x="462.976562"/>
     <use xlink:href="#DejaVuSans-Bold-45" x="497.791016"/>
     <use xlink:href="#DejaVuSans-Bold-72" x="566.101562"/>
     <use xlink:href="#DejaVuSans-Bold-72" x="615.417969"/>
     <use xlink:href="#DejaVuSans-Bold-6f" x="664.734375"/>
     <use xlink:href="#DejaVuSans-Bold-72" x="733.435547"/>
     <use xlink:href="#DejaVuSans-Bold-20" x="782.751953"/>
     <use xlink:href="#DejaVuSans-Bold-76" x="817.566406"/>
     <use xlink:href="#DejaVuSans-Bold-73" x="882.751953"/>
     <use xlink:href="#DejaVuSans-Bold-2e" x="942.273438"/>
     <use xlink:href="#DejaVuSans-Bold-20" x="980.261719"/>
     <use xlink:href="#DejaVuSans-Bold-54" x="1015.076172"/>
     <use xlink:href="#DejaVuSans-Bold-61" x="1070.414062"/>
     <use xlink:href="#DejaVuSans-Bold-72" x="1137.894531"/>
     <use xlink:href="#DejaVuSans-Bold-67" x="1187.210938"/>
     <use xlink:href="#DejaVuSans-Bold-65" x="1258.792969"/>
     <use xlink:href="#DejaVuSans-Bold-74" x="1326.615234"/>
     <use xlink:href="#DejaVuSans-Bold-20" x="1374.417969"/>
     <use xlink:href="#DejaVuSans-Bold-44" x="1409.232422"/>
     <use xlink:href="#DejaVuSans-Bold-69" x="1492.240234"/>
     <use xlink:href="#DejaVuSans-Bold-73" x="1526.517578"/>
     <use xlink:href="#DejaVuSans-Bold-74" x="1586.039062"/>
     <use xlink:href="#DejaVuSans-Bold-61" x="1633.841797"/>
     <use xlink:href="#DejaVuSans-Bold-6e" x="1701.322266"/>
     <use xlink:href="#DejaVuSans-Bold-63" x="1772.513672"/>
     <use xlink:href="#DejaVuSans-Bold-65" x="1831.791016"/>
     <use xlink:href="#DejaVuSans-Bold-20" x="1899.613281"/>
     <use xlink:href="#DejaVuSans-Bold-28" x="1934.427734"/>
     <use xlink:href="#DejaVuSans-Bold-57" x="1980.130859"/>
     <use xlink:href="#DejaVuSans-Bold-69" x="2090.433594"/>
     <use xlink:href="#DejaVuSans-Bold-64" x="2124.710938"/>
     <use xlink:href="#DejaVuSans-Bold-65" x="2196.292969"/>
     <use xlink:href="#DejaVuSans-Bold-20" x="2264.115234"/>
     <use xlink:href="#DejaVuSans-Bold-53" x="2298.929688"/>
     <use xlink:href="#DejaVuSans-Bold-70" x="2370.951172"/>
     <use xlink:href="#DejaVuSans-Bold-72" x="2442.533203"/>
     <use xlink:href="#DejaVuSans-Bold-65" x="2491.849609"/>
     <use xlink:href="#DejaVuSans-Bold-61" x="2559.671875"/>
     <use xlink:href="#DejaVuSans-Bold-64" x="2627.152344"/>
     <use xlink:href="#DejaVuSans-Bold-29" x="2698.734375"/>
    </g>
   </g>
   <g id="legend_1">
    <g id="patch_5">
     <path d="M 622.229687 84.872187 
L 687.8875 84.872187 
Q 689.8875 84.872187 689.8875 82.872187 
L 689.8875 39.837812 
Q 689.8875 37.837812 687.8875 37.837812 
L 622.229687 37.837812 
Q 620.229687 37.837812 620.229687 39.837812 
L 620.229687 82.872187 
Q 620.229687 84.872187 622.229687 84.872187 
z
" style="fill: #ffffff; opacity: 0.8; stroke: #cccccc; stroke-linejoin: miter"/>
    </g>
    <g id="LineCollection_4">
     <path d="M 634.229687 50.93625 
L 634.229687 40.93625 
" style="fill: none; stroke: #4472c4"/>
    </g>
    <g id="line2d_34">
     <g>
      <use xlink:href="#m4471dcd8bb" x="634.229687" y="50.93625" style="fill: #4472c4; stroke: #4472c4"/>
     </g>
    </g>
    <g id="line2d_35">
     <g>
      <use xlink:href="#m4471dcd8bb" x="634.229687" y="40.93625" style="fill: #4472c4; stroke: #4472c4"/>
     </g>
    </g>
    <g id="line2d_36">
     <path d="M 624.229687 45.93625 
L 644.229687 45.93625 
" style="fill: none; stroke: #4472c4; stroke-width: 2; stroke-linecap: square"/>
    </g>
    <g id="line2d_37">
     <g>
      <use xlink:href="#m9550f8bf0c" x="634.229687" y="45.93625" style="fill: #4472c4; stroke: #4472c4"/>
     </g>
    </g>
    <g id="text_16">
     <!-- Left -->
     <g transform="translate(652.229687 49.43625) scale(0.1 -0.1)">
      <defs>
       <path id="DejaVuSans-4c" d="M 628 4666 
L 1259 4666 
L 1259 531 
L 3531 531 
L 3531 0 
L 628 0 
L 628 4666 
z
" transform="scale(0.015625)"/>
       <path id="DejaVuSans-65" d="M 3597 1894 
L 3597 1613 
L 953 1613 
Q 991 1019 1311 708 
Q 1631 397 2203 397 
Q 2534 397 2845 478 
Q 3156 559 3463 722 
L 3463 178 
Q 3153 47 2828 -22 
Q 2503 -91 2169 -91 
Q 1331 -91 842 396 
Q 353 884 353 1716 
Q 353 2575 817 3079 
Q 1281 3584 2069 3584 
Q 2775 3584 3186 3129 
Q 3597 2675 3597 1894 
z
M 3022 2063 
Q 3016 2534 2758 2815 
Q 2500 3097 2075 3097 
Q 1594 3097 1305 2825 
Q 1016 2553 972 2059 
L 3022 2063 
z
" transform="scale(0.015625)"/>
       <path id="DejaVuSans-66" d="M 2375 4863 
L 2375 4384 
L 1825 4384 
Q 1516 4384 1395 4259 
Q 1275 4134 1275 3809 
L 1275 3500 
L 2222 3500 
L 2222 3053 
L 1275 3053 
L 1275 0 
L 697 0 
L 697 3053 
L 147 3053 
L 147 3500 
L 697 3500 
L 697 3744 
Q 697 4328 969 4595 
Q 1241 4863 1831 4863 
L 2375 4863 
z
" transform="scale(0.015625)"/>
       <path id="DejaVuSans-74" d="M 1172 4494 
L 1172 3500 
L 2356 3500 
L 2356 3053 
L 1172 3053 
L 1172 1153 
Q 1172 725 1289 603 
Q 1406 481 1766 481 
L 2356 481 
L 2356 0 
L 1766 0 
Q 1100 0 847 248 
Q 594 497 594 1153 
L 594 3053 
L 172 3053 
L 172 3500 
L 594 3500 
L 594 4494 
L 1172 4494 
z
" transform="scale(0.015625)"/>
      </defs>
      <use xlink:href="#DejaVuSans-4c"/>
      <use xlink:href="#DejaVuSans-65" x="53.962891"/>
      <use xlink:href="#DejaVuSans-66" x="115.486328"/>
      <use xlink:href="#DejaVuSans-74" x="148.941406"/>
     </g>
    </g>
    <g id="LineCollection_5">
     <path d="M 634.229687 65.614375 
L 634.229687 55.614375 
" style="fill: none; stroke: #ed7d31"/>
    </g>
    <g id="line2d_38">
     <g>
      <use xlink:href="#m96ea6d3297" x="634.229687" y="65.614375" style="fill: #ed7d31; stroke: #ed7d31"/>
     </g>
    </g>
    <g id="line2d_39">
     <g>
      <use xlink:href="#m96ea6d3297" x="634.229687" y="55.614375" style="fill: #ed7d31; stroke: #ed7d31"/>
     </g>
    </g>
    <g id="line2d_40">
     <path d="M 624.229687 60.614375 
L 644.229687 60.614375 
" style="fill: none; stroke: #ed7d31; stroke-width: 2; stroke-linecap: square"/>
    </g>
    <g id="line2d_41">
     <g>
      <use xlink:href="#m027818e99c" x="634.229687" y="60.614375" style="fill: #ed7d31; stroke: #ed7d31"/>
     </g>
    </g>
    <g id="text_17">
     <!-- Center -->
     <g transform="translate(652.229687 64.114375) scale(0.1 -0.1)">
      <defs>
       <path id="DejaVuSans-43" d="M 4122 4306 
L 4122 3641 
Q 3803 3938 3442 4084 
Q 3081 4231 2675 4231 
Q 1875 4231 1450 3742 
Q 1025 3253 1025 2328 
Q 1025 1406 1450 917 
Q 1875 428 2675 428 
Q 3081 428 3442 575 
Q 3803 722 4122 1019 
L 4122 359 
Q 3791 134 3420 21 
Q 3050 -91 2638 -91 
Q 1578 -91 968 557 
Q 359 1206 359 2328 
Q 359 3453 968 4101 
Q 1578 4750 2638 4750 
Q 3056 4750 3426 4639 
Q 3797 4528 4122 4306 
z
" transform="scale(0.015625)"/>
       <path id="DejaVuSans-6e" d="M 3513 2113 
L 3513 0 
L 2938 0 
L 2938 2094 
Q 2938 2591 2744 2837 
Q 2550 3084 2163 3084 
Q 1697 3084 1428 2787 
Q 1159 2491 1159 1978 
L 1159 0 
L 581 0 
L 581 3500 
L 1159 3500 
L 1159 2956 
Q 1366 3272 1645 3428 
Q 1925 3584 2291 3584 
Q 2894 3584 3203 3211 
Q 3513 2838 3513 2113 
z
" transform="scale(0.015625)"/>
       <path id="DejaVuSans-72" d="M 2631 2963 
Q 2534 3019 2420 3045 
Q 2306 3072 2169 3072 
Q 1681 3072 1420 2755 
Q 1159 2438 1159 1844 
L 1159 0 
L 581 0 
L 581 3500 
L 1159 3500 
L 1159 2956 
Q 1341 3275 1631 3429 
Q 1922 3584 2338 3584 
Q 2397 3584 2469 3576 
Q 2541 3569 2628 3553 
L 2631 2963 
z
" transform="scale(0.015625)"/>
      </defs>
      <use xlink:href="#DejaVuSans-43"/>
      <use xlink:href="#DejaVuSans-65" x="69.824219"/>
      <use xlink:href="#DejaVuSans-6e" x="131.347656"/>
      <use xlink:href="#DejaVuSans-74" x="194.726562"/>
      <use xlink:href="#DejaVuSans-65" x="233.935547"/>
      <use xlink:href="#DejaVuSans-72" x="295.458984"/>
     </g>
    </g>
    <g id="LineCollection_6">
     <path d="M 634.229687 80.2925 
L 634.229687 70.2925 
" style="fill: none; stroke: #92d050"/>
    </g>
    <g id="line2d_42">
     <g>
      <use xlink:href="#m5da6ae7015" x="634.229687" y="80.2925" style="fill: #92d050; stroke: #92d050"/>
     </g>
    </g>
    <g id="line2d_43">
     <g>
      <use xlink:href="#m5da6ae7015" x="634.229687" y="70.2925" style="fill: #92d050; stroke: #92d050"/>
     </g>
    </g>
    <g id="line2d_44">
     <path d="M 624.229687 75.2925 
L 644.229687 75.2925 
" style="fill: none; stroke: #92d050; stroke-width: 2; stroke-linecap: square"/>
    </g>
    <g id="line2d_45">
     <g>
      <use xlink:href="#ma5819dbdaa" x="634.229687" y="75.2925" style="fill: #92d050; stroke: #92d050"/>
     </g>
    </g>
    <g id="text_18">
     <!-- Right -->
     <g transform="translate(652.229687 78.7925) scale(0.1 -0.1)">
      <defs>
       <path id="DejaVuSans-52" d="M 2841 2188 
Q 3044 2119 3236 1894 
Q 3428 1669 3622 1275 
L 4263 0 
L 3584 0 
L 2988 1197 
Q 2756 1666 2539 1819 
Q 2322 1972 1947 1972 
L 1259 1972 
L 1259 0 
L 628 0 
L 628 4666 
L 2053 4666 
Q 2853 4666 3247 4331 
Q 3641 3997 3641 3322 
Q 3641 2881 3436 2590 
Q 3231 2300 2841 2188 
z
M 1259 4147 
L 1259 2491 
L 2053 2491 
Q 2509 2491 2742 2702 
Q 2975 2913 2975 3322 
Q 2975 3731 2742 3939 
Q 2509 4147 2053 4147 
L 1259 4147 
z
" transform="scale(0.015625)"/>
       <path id="DejaVuSans-69" d="M 603 3500 
L 1178 3500 
L 1178 0 
L 603 0 
L 603 3500 
z
M 603 4863 
L 1178 4863 
L 1178 4134 
L 603 4134 
L 603 4863 
z
" transform="scale(0.015625)"/>
       <path id="DejaVuSans-67" d="M 2906 1791 
Q 2906 2416 2648 2759 
Q 2391 3103 1925 3103 
Q 1463 3103 1205 2759 
Q 947 2416 947 1791 
Q 947 1169 1205 825 
Q 1463 481 1925 481 
Q 2391 481 2648 825 
Q 2906 1169 2906 1791 
z
M 3481 434 
Q 3481 -459 3084 -895 
Q 2688 -1331 1869 -1331 
Q 1566 -1331 1297 -1286 
Q 1028 -1241 775 -1147 
L 775 -588 
Q 1028 -725 1275 -790 
Q 1522 -856 1778 -856 
Q 2344 -856 2625 -561 
Q 2906 -266 2906 331 
L 2906 616 
Q 2728 306 2450 153 
Q 2172 0 1784 0 
Q 1141 0 747 490 
Q 353 981 353 1791 
Q 353 2603 747 3093 
Q 1141 3584 1784 3584 
Q 2172 3584 2450 3431 
Q 2728 3278 2906 2969 
L 2906 3500 
L 3481 3500 
L 3481 434 
z
" transform="scale(0.015625)"/>
       <path id="DejaVuSans-68" d="M 3513 2113 
L 3513 0 
L 2938 0 
L 2938 2094 
Q 2938 2591 2744 2837 
Q 2550 3084 2163 3084 
Q 1697 3084 1428 2787 
Q 1159 2491 1159 1978 
L 1159 0 
L 581 0 
L 581 4863 
L 1159 4863 
L 1159 2956 
Q 1366 3272 1645 3428 
Q 1925 3584 2291 3584 
Q 2894 3584 3203 3211 
Q 3513 2838 3513 2113 
z
" transform="scale(0.015625)"/>
      </defs>
      <use xlink:href="#DejaVuSans-52"/>
      <use xlink:href="#DejaVuSans-69" x="69.482422"/>
      <use xlink:href="#DejaVuSans-67" x="97.265625"/>
      <use xlink:href="#DejaVuSans-68" x="160.742188"/>
      <use xlink:href="#DejaVuSans-74" x="224.121094"/>
     </g>
    </g>
   </g>
  </g>
 </g>
 <defs>
  <clipPath id="p6325e23365">
   <rect x="42.6325" y="32.837812" width="652.255" height="350.56"/>
  </clipPath>
 </defs>
</svg>
